<svg xmlns="http://www.w3.org/2000/svg" width="59.808" height="19.364" viewBox="0 0 59.808 19.364">
  <g id="logo-Visa" transform="translate(-2638.249 -3732.735)">
    <g id="形状_1" transform="translate(2643.476 3732.735)">
      <g id="Grupo_10628" data-name="Grupo 10628">
        <path id="Trazado_21162" data-name="Trazado 21162" d="M84.246,182.2,81.2,200.906h4.87L89.116,182.2Zm-7.141,0-4.643,12.867-.549-2.771h0l-.121-.621A15.513,15.513,0,0,0,67.47,186.2a19.484,19.484,0,0,0-2.167-1.5l4.22,16.208H74.6L82.346,182.2Zm19.007,5.193c0-2.115,4.743-1.843,6.827-.695l.695-4.018a14.058,14.058,0,0,0-4.38-.816c-2.417,0-8.156,1.057-8.156,6.193,0,4.833,6.736,4.894,6.736,7.431s-6.042,2.084-8.036.483l-.725,4.2a13.642,13.642,0,0,0,5.5,1.057c3.323,0,8.338-1.722,8.338-6.4C102.908,189.96,96.111,189.507,96.111,187.392Zm19.873-5.193h-3.916a2.238,2.238,0,0,0-2.248,1.394l-7.263,17.313h5.076l1.015-2.779h6.191l.571,2.779h4.472Zm-5.932,12.09,2.559-7,1.44,7Z" transform="translate(-65.303 -181.864)" fill="#005bac" fill-rule="evenodd"/>
      </g>
    </g>
    <g id="形状_1_1_" transform="translate(2638.249 3733.142)">
      <g id="Grupo_10629" data-name="Grupo 10629">
        <path id="Trazado_21163" data-name="Trazado 21163" d="M35.273,186.7a2.112,2.112,0,0,0-2.354-1.688H25.1l-.092.317a19.374,19.374,0,0,1,7.364,3.636,14.61,14.61,0,0,1,4.57,6.163Z" transform="translate(-25.009 -185.007)" fill="#f6ac1d" fill-rule="evenodd"/>
      </g>
    </g>
  </g>
</svg>
