<svg id="Logo-Master" xmlns="http://www.w3.org/2000/svg" width="31.252" height="19.364" viewBox="0 0 31.252 19.364">
  <g id="g3110" transform="translate(0 0)">
    <path id="path2997" d="M301.876,56.227a9.662,9.662,0,1,1-9.668-9.682,9.671,9.671,0,0,1,9.668,9.682Z" transform="translate(-270.624 -46.545)" fill="#f79f1a"/>
    <path id="path2995" d="M86.407,56.227a9.662,9.662,0,1,1-9.662-9.682,9.671,9.671,0,0,1,9.662,9.682Z" transform="translate(-67.083 -46.545)" fill="#ea001b"/>
    <path id="path2999" d="M286.132,83.733a9.7,9.7,0,0,0,0,15.246,9.7,9.7,0,0,0,0-15.246Z" transform="translate(-270.509 -81.674)" fill="#ff5f01"/>
  </g>
  <g id="g3043" transform="translate(30.485 14.473)">
    <g id="text3045" transform="translate(0 0)">
      <path id="path3057" d="M1.67,15.79v-.342H1.585l-.1.239-.1-.248H1.285v.342h.06v-.256l.094.222h.068l.1-.222v.265Zm-.573,0V15.5h.12v-.06H.926v.06h.12v.291Z" transform="translate(-0.926 -15.439)" fill="#f79f1a"/>
    </g>
  </g>
</svg>
