<svg xmlns="http://www.w3.org/2000/svg" xmlns:xlink="http://www.w3.org/1999/xlink" width="58.099" height="19" viewBox="0 0 58.099 19">
  <defs>
    <clipPath id="clip-path">
      <rect id="Rectángulo_9220" data-name="Rectángulo 9220" width="58.099" height="19" fill="none"/>
    </clipPath>
  </defs>
  <g id="Logo-OCA" clip-path="url(#clip-path)">
    <path id="Trazado_21155" data-name="Trazado 21155" d="M10.718.153a8.328,8.328,0,0,1,8.626,6.472A9.6,9.6,0,0,1,16.827,15.3,10.466,10.466,0,0,1,5.9,18.742,7.977,7.977,0,0,1,.087,12.134C-.458,7.5,1.577,4.145,5.341,1.708A9.112,9.112,0,0,1,10.718.153M9.237,14.528a8.8,8.8,0,0,0,.967-.1,5.451,5.451,0,0,0,4.3-5.374,3.881,3.881,0,0,0-3.556-4.284,5.482,5.482,0,0,0-5.536,3.1C3.8,11.1,5.756,14.5,9.237,14.528" transform="translate(0 -0.121)" fill="#006ed2"/>
    <path id="Trazado_21156" data-name="Trazado 21156" d="M274.971,18.49c-1.532,0-3.03.017-4.525-.026-.153,0-.413-.369-.423-.576a4.129,4.129,0,0,0-1.678-3.216,23.647,23.647,0,0,1-2.139-1.9,1.182,1.182,0,0,1-.363-.941c.074-.224.562-.4.886-.434a12.545,12.545,0,0,1,1.8-.016c.532.016.7-.19.63-.73-.245-1.886-.444-3.778-.682-5.665a2.31,2.31,0,0,0-.287-.625,2.413,2.413,0,0,0-.495.493q-2.454,4.57-4.881,9.154c-.671,1.261-1.346,2.519-2.008,3.785a1.2,1.2,0,0,1-1.206.712c-1.369-.026-2.74-.008-4.259-.008.562-1.056,1.05-1.977,1.541-2.9Q260.822,8.248,264.75.886a1.4,1.4,0,0,1,1.412-.869c1.857.035,3.715.023,5.572.006.559,0,.845.128.922.775.352,2.93.763,5.853,1.16,8.777.38,2.8.77,5.593,1.151,8.39a4.536,4.536,0,0,1,0,.525" transform="translate(-216.879 -0.014)" fill="#006ed2"/>
    <path id="Trazado_21157" data-name="Trazado 21157" d="M155.883,13.916c-2.482,3.319-5.515,5.179-9.659,5.058a8.136,8.136,0,0,1-7.905-6.832,10.012,10.012,0,0,1,3.329-9.161A10.355,10.355,0,0,1,150.34.09a8.3,8.3,0,0,1,6.136,3.9c.263.4.227.659-.236.881-1.039.5-2.065,1.024-3.086,1.56a.984.984,0,0,1-1.271-.276,4.634,4.634,0,0,0-6.028-.695,5.261,5.261,0,0,0-2.593,5.749,3.9,3.9,0,0,0,3.155,3.062,4.629,4.629,0,0,0,4.589-1.39c.9-.957,1.028-1,2.172-.39.858.455,1.72.9,2.7,1.42" transform="translate(-117.373 0)" fill="#006ed2"/>
  </g>
</svg>
